<svg width="16" height="16" viewBox="0 0 16 16" xmlns="http://www.w3.org/2000/svg"><g fill="none" fill-rule="evenodd"><path d="M2.617 12.385a1.504 1.504 0 0 1 .147-1.942L8.5 4.707 10.293 6.5l-5.736 5.736a1.494 1.494 0 0 1-1.94.149z" stroke="currentColor"></path><path d="M7.79 2.21a.999.999 0 0 1 1.416-.004l3.588 3.588a.997.997 0 0 1-.005 1.417l-.578.578a.999.999 0 0 1-1.417.005L7.206 4.206a.997.997 0 0 1 .005-1.417l.578-.578z" fill="currentColor"></path><path d="M8.5 4s3.5-4 5-2.5-2.5 5-2.5 5L8.5 4z" fill="currentColor"></path></g></svg>